<?xml version="1.0" standalone="no"?>
<!DOCTYPE svg PUBLIC "-//W3C//DTD SVG 20010904//EN"
 "http://www.w3.org/TR/2001/REC-SVG-20010904/DTD/svg10.dtd">
<svg version="1.0" xmlns="http://www.w3.org/2000/svg"
 width="640.000000pt" height="213.000000pt" viewBox="0 0 640.000000 213.000000"
 preserveAspectRatio="xMidYMid meet">

<g transform="translate(0.000000,213.000000) scale(0.100000,-0.100000)"
fill="#000000" stroke="none">
<path d="M594 2115 c-40 -7 -89 -18 -110 -25 -122 -39 -264 -145 -350 -262
-91 -124 -146 -326 -125 -464 28 -192 165 -491 414 -909 98 -164 279 -445 287
-445 9 0 261 400 358 570 125 216 252 478 299 615 37 106 38 115 38 240 -1
116 -4 139 -28 210 -72 206 -235 372 -434 440 -66 23 -197 46 -251 44 -15 0
-59 -7 -98 -14z m231 -120 c207 -44 381 -202 446 -405 16 -49 21 -91 21 -170
0 -119 -19 -196 -73 -290 l-32 -55 -12 36 c-40 114 -96 174 -172 184 -26 3
-62 8 -79 11 -28 4 -35 -1 -72 -48 -23 -29 -54 -69 -71 -88 l-29 -34 -12 42
c-6 24 -9 51 -6 60 9 28 3 35 -32 36 -32 1 -41 -11 -21 -31 7 -7 6 -25 -2 -58
l-12 -49 -39 45 c-22 24 -53 63 -70 86 -30 41 -31 42 -82 36 -96 -10 -123 -21
-165 -69 -24 -27 -48 -69 -58 -100 -9 -29 -20 -51 -25 -48 -5 3 -24 37 -44 76
-82 163 -83 349 -4 510 90 180 233 287 445 332 44 9 134 5 200 -9z"/>
<path d="M630 1888 c-40 -11 -94 -49 -115 -82 -8 -12 -20 -49 -26 -82 -6 -32
-15 -69 -21 -81 -15 -31 -5 -91 23 -136 94 -148 137 -187 212 -187 82 0 135
45 205 173 41 75 55 138 32 152 -5 3 -10 27 -10 53 0 144 -144 235 -300 190z
m112 -183 c35 4 64 3 77 -4 14 -8 21 -8 21 -1 0 23 20 7 40 -32 11 -24 26 -50
32 -59 12 -18 4 -61 -15 -81 -7 -7 -25 -34 -39 -59 -54 -92 -124 -132 -192
-109 -37 12 -100 74 -119 118 -6 15 -22 40 -34 55 -24 30 -30 71 -13 82 6 4
17 22 25 41 19 46 62 65 119 52 22 -5 66 -6 98 -3z"/>
<path d="M2393 1069 c-17 -5 -46 -26 -62 -46 l-31 -38 0 43 0 42 -45 0 -45 0
0 -390 0 -390 45 0 44 0 3 324 3 324 24 26 c30 32 73 34 101 6 19 -19 20 -33
20 -350 l0 -330 50 0 50 0 0 330 c0 317 1 331 20 350 26 26 81 26 103 2 15
-17 17 -56 17 -350 l0 -332 50 0 51 0 -3 354 c-3 342 -4 356 -24 383 -44 59
-132 62 -191 6 -27 -25 -39 -30 -45 -21 -4 7 -8 16 -8 20 0 11 -41 35 -70 41
-14 2 -39 1 -57 -4z"/>
<path d="M3070 1070 c-54 -10 -78 -27 -102 -73 -22 -40 -23 -55 -26 -287 -4
-268 3 -331 44 -380 48 -57 164 -64 224 -14 35 30 47 68 56 182 l7 82 -51 0
-50 0 -4 -90 c-3 -99 -16 -123 -64 -122 -54 0 -64 28 -64 178 l0 134 116 0
117 0 -5 138 c-3 110 -8 145 -24 177 -32 65 -91 90 -174 75z m88 -111 c8 -16
11 -58 10 -119 l-3 -95 -62 -3 -63 -3 0 95 c0 52 4 106 10 121 19 49 83 51
108 4z"/>
<path d="M3487 1063 c-49 -20 -76 -73 -84 -164 l-6 -69 52 0 51 0 0 59 c0 94
58 143 106 90 16 -17 19 -36 19 -106 l0 -84 -70 -30 c-137 -59 -165 -97 -165
-228 0 -170 37 -241 125 -241 38 0 52 5 77 30 16 17 31 30 34 30 2 0 4 -13 4
-29 0 -27 2 -28 51 -28 l50 0 -3 331 c-3 312 -4 334 -24 377 -34 74 -125 100
-217 62z m143 -493 c0 -148 -1 -151 -25 -176 -19 -19 -34 -24 -57 -22 -49 5
-59 33 -56 159 3 119 10 134 78 170 61 32 60 34 60 -131z"/>
<path d="M3947 1066 c-73 -26 -97 -68 -97 -168 0 -87 30 -148 114 -228 85 -83
120 -151 114 -220 -6 -61 -21 -80 -64 -80 -45 0 -64 37 -64 125 l0 65 -51 0
-52 0 6 -80 c9 -140 58 -195 170 -194 104 1 152 61 151 184 0 98 -22 139 -129
251 -90 93 -111 135 -102 202 6 47 28 67 69 67 24 0 32 -7 44 -35 7 -19 14
-62 14 -95 l0 -60 51 0 51 0 -7 68 c-13 134 -39 184 -103 202 -48 13 -69 12
-115 -4z"/>
<path d="M4983 1068 c-17 -4 -46 -25 -62 -45 l-31 -38 0 43 0 42 -50 0 -50 0
0 -390 0 -390 50 0 50 0 0 318 c0 318 0 319 23 339 31 29 61 43 91 43 24 0 26
4 26 39 0 47 -5 51 -47 39z"/>
<path d="M5248 1070 c-51 -9 -82 -32 -104 -77 -17 -34 -19 -66 -22 -295 -3
-276 1 -317 44 -367 48 -58 164 -65 224 -15 34 30 46 67 56 182 l7 82 -50 0
-51 0 -4 -90 c-5 -100 -16 -123 -64 -122 -54 0 -64 28 -64 178 l0 134 116 0
117 0 -5 139 c-4 109 -9 147 -24 177 -32 64 -91 89 -176 74z m90 -111 c8 -16
11 -58 10 -119 l-3 -95 -65 0 -65 0 3 98 c1 54 7 108 13 118 23 44 83 42 107
-2z"/>
<path d="M5664 1062 c-51 -25 -75 -72 -82 -164 l-5 -68 52 0 51 0 0 59 c0 94
58 143 106 90 15 -17 19 -37 19 -105 l0 -84 -79 -35 c-133 -58 -156 -92 -156
-233 0 -163 38 -232 127 -232 36 0 50 6 75 30 16 17 31 30 34 30 2 0 4 -13 4
-28 0 -27 2 -29 51 -31 l51 -2 -4 333 c-3 293 -6 338 -22 375 -23 54 -55 74
-125 79 -41 4 -67 0 -97 -14z m146 -492 c0 -148 -1 -151 -25 -176 -19 -19 -34
-24 -57 -22 -49 5 -59 33 -56 159 3 119 10 134 78 170 61 32 60 34 60 -131z"/>
<path d="M4290 728 c0 -387 2 -397 72 -431 51 -25 99 -15 138 29 16 19 31 34
33 34 2 0 1 -16 -1 -35 l-4 -35 51 0 51 0 0 391 0 390 -47 -3 -48 -3 -5 -326
c-5 -303 -6 -328 -24 -348 -25 -28 -77 -28 -102 0 -18 20 -19 43 -22 350 l-3
329 -45 0 -44 0 0 -342z"/>
<path d="M6056 1063 c-3 -4 -6 -211 -6 -460 l1 -453 49 0 50 0 0 95 c0 87 9
118 23 81 3 -8 20 -22 37 -31 37 -19 88 -12 125 17 46 36 55 97 55 372 0 273
-6 313 -50 358 -23 23 -37 28 -75 28 -38 0 -52 -5 -77 -30 -16 -16 -31 -30
-34 -30 -2 0 -4 14 -4 30 0 29 -2 30 -43 30 -24 0 -47 -3 -51 -7z m218 -95
c14 -19 16 -63 16 -283 0 -295 -3 -308 -62 -313 -31 -3 -40 1 -55 24 -15 23
-18 56 -21 226 -5 236 2 322 29 349 26 26 74 25 93 -3z"/>
</g>
</svg>
