<svg width="20" height="21" viewBox="0 0 20 21" fill="none" xmlns="http://www.w3.org/2000/svg">
<g clip-path="url(#clip0_2121_52)">
<path d="M13.0893 11.0893C13.2455 10.933 13.3333 10.721 13.3333 10.5C13.3333 10.279 13.2455 10.067 13.0893 9.91074L9.75592 6.57741C9.43049 6.25197 8.90285 6.25197 8.57741 6.57741C8.25197 6.90285 8.25197 7.43048 8.57741 7.75592L11.3215 10.5L8.57741 13.2441C8.25197 13.5695 8.25197 14.0972 8.57741 14.4226C8.90285 14.748 9.43048 14.748 9.75592 14.4226L13.0893 11.0893Z" fill="#003F70"/>
<path fill-rule="evenodd" clip-rule="evenodd" d="M20 10.5C20 16.0228 15.5228 20.5 10 20.5C4.47715 20.5 0 16.0228 0 10.5C0 4.97715 4.47715 0.5 10 0.5C15.5228 0.5 20 4.97715 20 10.5ZM18.3333 10.5C18.3333 15.1024 14.6024 18.8333 10 18.8333C5.39763 18.8333 1.66667 15.1024 1.66667 10.5C1.66667 5.89763 5.39763 2.16667 10 2.16667C14.6024 2.16667 18.3333 5.89763 18.3333 10.5Z" fill="#003F70"/>
</g>
<defs>
<clipPath id="clip0_2121_52">
<rect width="20" height="20" fill="white" transform="translate(0 0.5)"/>
</clipPath>
</defs>
</svg>
