<?xml version="1.0" standalone="no"?>
<!DOCTYPE svg PUBLIC "-//W3C//DTD SVG 20010904//EN"
 "http://www.w3.org/TR/2001/REC-SVG-20010904/DTD/svg10.dtd">
<svg version="1.0" xmlns="http://www.w3.org/2000/svg"
 width="336.000000pt" height="238.000000pt" viewBox="0 0 336.000000 238.000000"
 preserveAspectRatio="xMidYMid meet">

<g transform="translate(0.000000,238.000000) scale(0.100000,-0.100000)"
fill="#000000" stroke="none">
<path d="M1478 1984 c-113 -27 -200 -85 -257 -171 -52 -78 -47 -84 62 -77 121
7 236 28 326 59 75 25 175 80 204 113 17 18 15 20 -42 46 -103 46 -191 55
-293 30z"/>
<path d="M1860 1865 c-19 -23 -155 -84 -234 -105 -84 -23 -192 -37 -339 -46
-59 -3 -110 -11 -114 -17 -9 -15 335 -1 455 18 90 15 255 63 299 88 l21 12
-29 33 c-32 36 -41 39 -59 17z"/>
<path d="M1890 1730 c-112 -36 -240 -51 -482 -57 -164 -4 -238 -9 -238 -17 0
-12 675 -12 778 0 l54 6 -7 36 c-11 61 -14 62 -105 32z"/>
<path d="M1170 1613 c0 -6 74 -12 188 -16 228 -8 389 -28 519 -66 54 -16 102
-25 107 -20 5 4 9 25 10 46 l1 38 -65 7 c-121 12 -760 22 -760 11z"/>
<path d="M1180 1571 c0 -15 26 -19 160 -25 224 -11 362 -51 533 -154 28 -17
29 -17 53 13 13 17 24 33 24 36 0 11 -111 55 -193 78 -110 30 -248 48 -424 57
-110 5 -153 3 -153 -5z"/>
<path d="M1195 1509 c18 -58 79 -128 150 -171 139 -86 301 -98 444 -32 l56 25
-35 30 c-59 50 -208 118 -305 139 -49 11 -141 23 -204 27 l-113 6 7 -24z"/>
<path d="M2389 1148 c-9 -7 -37 -67 -63 -133 -26 -66 -52 -124 -57 -130 -5 -5
-9 -17 -9 -27 0 -15 9 -18 65 -18 58 0 65 2 65 19 0 11 -9 23 -20 26 -21 7
-24 14 -14 39 4 12 20 16 54 16 41 0 50 -3 56 -22 4 -14 1 -25 -10 -33 -10 -7
-14 -19 -10 -29 5 -12 20 -16 70 -16 55 0 64 3 64 18 0 10 -4 22 -9 27 -6 6
-32 69 -59 140 -47 122 -52 130 -79 133 -15 2 -35 -3 -44 -10z m35 -102 c3
-13 9 -31 12 -40 5 -13 -1 -16 -26 -16 -25 0 -31 3 -26 16 3 9 9 27 12 40 3
13 10 24 14 24 4 0 11 -11 14 -24z"/>
<path d="M360 1134 c0 -10 7 -25 16 -35 14 -15 14 -29 4 -113 -7 -53 -16 -99
-21 -102 -5 -3 -9 -14 -9 -25 0 -17 7 -19 60 -19 52 0 60 2 60 19 0 10 -9 25
-19 32 -17 12 -18 22 -13 83 l7 68 34 -98 c19 -55 37 -102 40 -106 4 -4 23 -5
42 -2 l36 6 23 92 c25 98 40 129 40 79 0 -16 3 -51 6 -76 6 -39 4 -46 -14 -51
-14 -5 -18 -13 -15 -26 5 -17 14 -20 74 -20 74 0 79 4 54 48 -8 15 -21 69 -28
120 -12 77 -12 92 -1 92 8 0 14 11 14 25 0 24 -2 25 -63 25 l-63 0 -28 -105
c-16 -58 -31 -104 -33 -102 -2 2 -18 49 -37 103 l-33 99 -66 3 c-58 3 -67 1
-67 -14z"/>
<path d="M883 1079 c-18 -3 -39 -12 -47 -19 -39 -31 -45 -135 -12 -185 22 -33
88 -51 138 -36 43 13 52 24 43 50 -5 16 -10 17 -45 8 -33 -9 -42 -8 -59 7 -28
25 -20 32 39 40 28 4 57 9 65 12 23 9 18 59 -10 92 -27 32 -61 42 -112 31z
m57 -64 c10 -12 8 -16 -15 -25 -39 -15 -45 -13 -45 15 0 20 5 25 24 25 13 0
29 -7 36 -15z"/>
<path d="M1107 1079 c-27 -4 -50 -9 -52 -11 -1 -2 0 -20 3 -40 3 -29 9 -38 23
-38 10 0 23 9 29 21 14 25 58 23 74 -4 13 -21 -5 -37 -44 -37 -43 0 -90 -36
-90 -67 0 -36 9 -49 43 -62 20 -8 38 -7 67 3 22 8 40 10 40 5 0 -10 50 -12 74
-3 20 8 21 30 1 38 -11 4 -15 23 -15 80 0 109 -34 135 -153 115z m81 -166 c3
-22 -27 -36 -54 -26 -23 8 -17 41 9 46 33 6 42 3 45 -20z"/>
<path d="M1370 1077 c-41 -14 -66 -53 -56 -90 4 -18 22 -34 56 -53 28 -15 50
-33 50 -41 0 -18 -40 -16 -61 3 -25 23 -49 11 -49 -25 0 -27 3 -30 43 -36 55
-8 123 10 137 36 23 42 9 72 -52 108 -58 34 -75 61 -39 61 10 0 30 -9 45 -21
31 -24 46 -18 46 21 0 19 -6 30 -17 33 -50 14 -71 14 -103 4z"/>
<path d="M1595 1084 c-5 -1 -27 -5 -47 -9 -41 -6 -50 -27 -21 -44 13 -7 18
-26 21 -83 6 -103 42 -135 117 -103 28 11 37 12 41 2 6 -17 84 -9 91 9 3 8 -2
23 -11 33 -12 13 -16 38 -16 104 l0 87 -34 0 c-19 0 -41 -3 -50 -6 -20 -8 -21
-40 -1 -48 11 -4 15 -21 15 -65 0 -52 -3 -59 -22 -64 -12 -3 -30 -2 -40 4 -15
8 -18 22 -18 94 0 81 -4 95 -25 89z"/>
<path d="M1885 1083 c-55 -10 -65 -14 -65 -27 0 -7 7 -19 15 -26 20 -17 21
-138 1 -146 -8 -3 -12 -13 -9 -25 5 -16 15 -19 74 -19 54 0 69 3 69 15 0 8 -9
19 -20 25 -17 9 -20 21 -20 70 0 59 0 60 33 68 27 7 33 13 35 40 4 36 -10 41
-46 16 -20 -14 -25 -14 -35 -2 -7 8 -21 13 -32 11z"/>
<path d="M2092 1078 c-50 -13 -74 -59 -69 -130 2 -38 10 -64 22 -78 27 -30 86
-43 135 -30 45 12 54 22 45 49 -5 17 -11 18 -38 10 -44 -12 -53 -11 -71 7 -23
22 -13 31 41 38 90 13 100 25 68 86 -24 46 -75 65 -133 48z m66 -70 c2 -11 -6
-18 -28 -23 -37 -8 -44 -4 -35 25 5 16 13 20 33 18 15 -2 28 -10 30 -20z"/>
<path d="M2665 1084 c-5 -1 -27 -5 -47 -9 -40 -6 -50 -27 -21 -43 25 -14 33
-230 9 -244 -9 -5 -16 -18 -16 -28 0 -18 7 -20 70 -20 75 0 88 11 50 43 -32
27 -25 44 22 50 79 11 121 62 115 140 -7 84 -59 126 -129 106 -18 -5 -34 -5
-37 0 -4 4 -10 7 -16 5z m89 -73 c12 -14 16 -32 14 -67 -3 -49 -3 -49 -40 -52
l-38 -3 0 64 c0 35 3 67 7 70 12 13 40 7 57 -12z"/>
<path d="M857 643 c19 -4 23 -12 26 -56 l3 -52 2 52 c2 40 6 53 20 56 9 3 -3
5 -28 4 -25 0 -35 -2 -23 -4z"/>
<path d="M941 633 c0 -10 4 -36 8 -58 7 -32 9 -34 10 -12 1 34 18 35 33 2 6
-14 15 -25 19 -25 5 0 4 11 -3 25 -8 19 -8 28 2 40 18 21 -4 45 -41 45 -21 0
-29 -5 -28 -17z m59 -13 c0 -13 -7 -20 -20 -20 -13 0 -20 7 -20 20 0 13 7 20
20 20 13 0 20 -7 20 -20z"/>
<path d="M1045 598 c-8 -28 -13 -54 -10 -56 5 -6 25 43 25 63 0 8 5 17 10 20
6 3 10 -3 10 -14 0 -24 20 -71 30 -71 4 0 -1 25 -13 55 -11 30 -24 55 -28 55
-5 0 -15 -23 -24 -52z"/>
<path d="M1134 626 c-13 -22 -14 -29 -2 -53 14 -30 43 -42 61 -24 7 7 4 8 -10
5 -26 -7 -45 18 -41 53 2 23 8 28 31 28 15 -1 27 3 27 7 0 19 -51 6 -66 -16z"/>
<path d="M1232 595 c0 -38 2 -51 7 -36 9 34 25 36 39 6 6 -14 16 -25 21 -25 6
0 1 16 -11 35 -20 34 -20 37 -3 55 10 11 13 20 7 20 -6 0 -20 -12 -29 -27
l-18 -27 -6 29 c-5 21 -7 12 -7 -30z"/>
<path d="M1350 647 c0 -5 5 -18 12 -30 6 -12 15 -35 19 -52 l7 -30 1 28 c1 15
8 41 16 57 9 17 12 30 7 30 -4 0 -13 -12 -18 -27 l-10 -28 -17 30 c-9 17 -16
26 -17 22z"/>
<path d="M1442 638 c-28 -28 -6 -98 31 -98 31 0 47 18 47 55 0 36 -15 55 -45
55 -12 0 -26 -5 -33 -12z m56 -10 c28 -28 2 -88 -33 -75 -20 8 -30 54 -15 72
15 18 32 19 48 3z"/>
<path d="M1551 609 c-1 -50 15 -73 45 -67 22 4 32 43 23 83 -6 26 -7 23 -8
-18 -1 -33 -6 -49 -16 -54 -22 -8 -28 1 -36 55 l-6 47 -2 -46z"/>
<path d="M1660 593 c2 -33 6 -46 8 -30 4 34 19 35 34 2 6 -14 15 -25 20 -25 5
0 4 9 -2 20 -8 14 -8 26 0 41 15 27 -3 49 -39 49 -26 0 -26 -1 -21 -57z m50
27 c0 -13 -7 -20 -20 -20 -13 0 -20 7 -20 20 0 13 7 20 20 20 13 0 20 -7 20
-20z"/>
<path d="M1791 593 c1 -40 3 -50 8 -33 4 15 16 27 31 30 18 4 25 13 25 30 0
21 -6 26 -32 28 l-33 3 1 -58z m54 27 c0 -8 -10 -16 -22 -18 -18 -3 -23 2 -23
18 0 16 5 21 23 18 12 -2 22 -10 22 -18z"/>
<path d="M1895 638 c-26 -72 -33 -98 -26 -98 5 0 15 24 22 53 l13 52 13 -44
c7 -25 18 -50 24 -55 13 -12 6 16 -17 72 -14 34 -22 40 -29 20z"/>
<path d="M1963 643 c13 -3 17 -15 17 -54 0 -27 5 -49 10 -49 6 0 10 22 10 49
0 39 4 51 18 54 9 3 -3 5 -28 5 -25 0 -37 -2 -27 -5z"/>
<path d="M2053 595 c0 -33 2 -45 4 -27 2 18 2 45 0 60 -2 15 -4 0 -4 -33z"/>
<path d="M2090 626 c0 -13 3 -38 6 -55 6 -27 10 -31 38 -30 30 2 30 2 4 6 -35
5 -39 40 -5 46 l22 4 -22 2 c-35 2 -31 39 5 44 22 3 20 4 -10 6 -34 1 -38 -2
-38 -23z"/>
<path d="M2180 595 c0 -33 4 -55 11 -55 7 0 10 15 7 41 -4 40 -3 41 12 20 51
-72 49 -72 48 -6 -1 57 -1 58 -7 16 l-6 -44 -23 42 c-13 22 -27 41 -33 41 -5
0 -9 -25 -9 -55z"/>
<path d="M2291 643 c11 -2 20 -22 26 -56 l10 -52 2 52 c1 40 5 53 19 56 9 3
-3 5 -28 5 -25 0 -38 -2 -29 -5z"/>
<path d="M513 593 c53 -2 141 -2 195 0 53 1 9 3 -98 3 -107 0 -151 -2 -97 -3z"/>
<path d="M2498 593 c57 -2 147 -2 200 0 53 1 7 3 -103 3 -110 0 -154 -2 -97
-3z"/>
</g>
</svg>
